{"title":"A Dog Year 2009 DvDRip H264 Feel-Free","uid":6002182,"size":714398143,"categoryP":"video","categoryS":"movies","magnet":"?xt=urn:btih:bf4c7f30ecbab5843aca696de7613d9edaab3524&amp;dn=A+Dog+Year+2009+DvDRip+H264+Feel-Free&amp;tr=udp%3A%2F%2Ftracker.openbittorrent.com%3A80&amp;tr=udp%3A%2F%2Fopen.demonii.com%3A1337&amp;tr=udp%3A%2F%2Ftracker.coppersurfer.tk%3A6969&amp;tr=udp%3A%2F%2Fexodus.desync.com%3A6969","seeders":0,"leechers":1,"uploader":"hiest","files":10,"time":1291209769,"description":"Genre:Comedy | Drama\nLanguage:English\nIMDb:http://www.imdb.com/title/tt0808232/\nSource:DVD\nSubtitles:Romana\n\nGeneral\nComplete name :A Dog Year 2009 DvDRip H264 Feel-Free\nFormat : MPEG-4\nFormat profile : Base Media\nCodec ID : mp42\nFile size : 679 MiB\nDuration : 1h 19mn\nOverall bit rate : 1 200 Kbps\nVideo #1\nCodec ID : avc1\nCodec ID/Info : Advanced Video Coding\nDuration : 1h 19mn\nBit rate mode : Variable\nBit rate : 727 Kbps\nWidth : 720 pixels\nHeight : 384 pixels\nDisplay aspect ratio : 1.875\nFrame rate mode : Constant\nFrame rate : 23.976 fps\nResolution : 24 bits\nColorimetry : 4:2:0\nScan type : Progressive\nBits/(Pixel*Frame) : 0.110\nStream size : 412 MiB (61%)\nAudio #2\nID : 2\nFormat : AAC\nFormat/Info : Advanced Audio Codec\nFormat version : Version 4\nFormat profile : LC\nFormat settings, SBR : No\nCodec ID : 40\nDuration : 1h 19mn\nBit rate mode : Constant\nBit rate : 469 Kbps\nNominal bit rate : 480 Kbps\nChannel(s) : 6 channels\nChannel positions : Front: L C R, Rear: L R, LFE\nSampling rate : 48.0 KHz\nResolution : 16 bits\nStream size : 265 MiB (39%) \nPlot:\nA guy suffering from a midlife crisis takes in a dog that's crazier than he is.\n\n\n\n================================== &lt;a href=&quot;\nhttp://thepiratebay.se/user/hiest&quot; rel=&quot;nofollow&quot; target=&quot;_NEW&quot;&gt;\nhttp://thepiratebay.se/user/hiest&lt;/a&gt;\n==================================","torrent":{"xt":"urn:btih:bf4c7f30ecbab5843aca696de7613d9edaab3524","amp;dn":"A+Dog+Year+2009+DvDRip+H264+Feel-Free","amp;tr":["udp%3A%2F%2Ftracker.openbittorrent.com%3A80","udp%3A%2F%2Fopen.demonii.com%3A1337","udp%3A%2F%2Ftracker.coppersurfer.tk%3A6969","udp%3A%2F%2Fexodus.desync.com%3A6969"],"infoHash":"bf4c7f30ecbab5843aca696de7613d9edaab3524","infoHashBuffer":{"type":"Buffer","data":[191,76,127,48,236,186,181,132,58,202,105,109,231,97,61,158,218,171,53,36]},"announce":[],"urlList":[]}}